<?xml version="1.0" encoding="UTF-8" standalone="no"?>
<!-- Created with Inkscape (http://www.inkscape.org/) -->

<svg
   xmlns:dc="http://purl.org/dc/elements/1.1/"
   xmlns:cc="http://creativecommons.org/ns#"
   xmlns:rdf="http://www.w3.org/1999/02/22-rdf-syntax-ns#"
   xmlns:svg="http://www.w3.org/2000/svg"
   xmlns="http://www.w3.org/2000/svg"
   xmlns:sodipodi="http://sodipodi.sourceforge.net/DTD/sodipodi-0.dtd"
   xmlns:inkscape="http://www.inkscape.org/namespaces/inkscape"
   width="9.7895832mm"
   height="8.8635416mm"
   viewBox="0 0 9.7895832 8.8635416"
   version="1.1"
   id="svg4052"
   inkscape:version="0.92.2 2405546, 2018-03-11"
   sodipodi:docname="linkedin.svg">
  <defs
     id="defs4046" />
  <sodipodi:namedview
     id="base"
     pagecolor="#ffffff"
     bordercolor="#666666"
     borderopacity="1.0"
     inkscape:pageopacity="0.0"
     inkscape:pageshadow="2"
     inkscape:zoom="0.75742187"
     inkscape:cx="33.641842"
     inkscape:cy="-124.3124"
     inkscape:document-units="mm"
     inkscape:current-layer="layer1"
     showgrid="false"
     fit-margin-top="0"
     fit-margin-left="0"
     fit-margin-right="0"
     fit-margin-bottom="0"
     inkscape:window-width="1366"
     inkscape:window-height="718"
     inkscape:window-x="0"
     inkscape:window-y="0"
     inkscape:window-maximized="1" />
  <metadata
     id="metadata4049">
    <rdf:RDF>
      <cc:Work
         rdf:about="">
        <dc:format>image/svg+xml</dc:format>
        <dc:type
           rdf:resource="http://purl.org/dc/dcmitype/StillImage" />
        <dc:title></dc:title>
      </cc:Work>
    </rdf:RDF>
  </metadata>
  <g
     inkscape:label="Layer 1"
     inkscape:groupmode="layer"
     id="layer1"
     transform="translate(-90.819146,-107.0788)">
    <g
       transform="matrix(0.26458333,0,0,0.26458333,-103.99356,0.42526136)"
       id="LinkedIn_4_">
      <rect
         style="fill:#187fb8"
         x="737.29999"
         y="413.79999"
         width="7.1999998"
         height="22.799999"
         id="rect140" />
      <path
         style="fill:#187fb8"
         inkscape:connector-curvature="0"
         d="m 764.1,413.6 c -4.1,0 -6.7,2.2 -7.2,3.8 v -3.6 h -8.1 c 0.1,1.9 0,22.8 0,22.8 h 8.1 v -12.3 c 0,-0.7 0,-1.4 0.2,-1.9 0.6,-1.4 1.7,-2.8 3.9,-2.8 2.8,0 4.1,2.1 4.1,5.2 v 11.8 h 8.2 v -12.7 c -0.1,-7 -4.1,-10.3 -9.2,-10.3 z"
         id="path142" />
      <path
         style="fill:#187fb8"
         inkscape:connector-curvature="0"
         d="m 740.7,403.1 c -2.7,0 -4.4,1.7 -4.4,4 0,2.2 1.7,3.9 4.3,3.9 h 0.1 c 2.7,0 4.4,-1.7 4.4,-4 -0.1,-2.2 -1.7,-3.9 -4.4,-3.9 z"
         id="path144" />
    </g>
  </g>
</svg>
