<?xml version="1.0" encoding="UTF-8" standalone="no"?>
<!-- Created with Inkscape (http://www.inkscape.org/) -->

<svg
   xmlns:dc="http://purl.org/dc/elements/1.1/"
   xmlns:cc="http://creativecommons.org/ns#"
   xmlns:rdf="http://www.w3.org/1999/02/22-rdf-syntax-ns#"
   xmlns:svg="http://www.w3.org/2000/svg"
   xmlns="http://www.w3.org/2000/svg"
   xmlns:sodipodi="http://sodipodi.sourceforge.net/DTD/sodipodi-0.dtd"
   xmlns:inkscape="http://www.inkscape.org/namespaces/inkscape"
   width="9.9218798mm"
   height="8.3079996mm"
   viewBox="0 0 9.9218798 8.3079996"
   version="1.1"
   id="svg4007"
   inkscape:version="0.92.2 2405546, 2018-03-11"
   sodipodi:docname="twitter.svg">
  <defs
     id="defs4001" />
  <sodipodi:namedview
     id="base"
     pagecolor="#ffffff"
     bordercolor="#666666"
     borderopacity="1.0"
     inkscape:pageopacity="0.0"
     inkscape:pageshadow="2"
     inkscape:zoom="0.75742187"
     inkscape:cx="-157.54697"
     inkscape:cy="-83.113524"
     inkscape:document-units="mm"
     inkscape:current-layer="layer1"
     showgrid="false"
     fit-margin-top="0"
     fit-margin-left="0"
     fit-margin-right="0"
     fit-margin-bottom="0"
     inkscape:window-width="1366"
     inkscape:window-height="718"
     inkscape:window-x="0"
     inkscape:window-y="0"
     inkscape:window-maximized="1" />
  <metadata
     id="metadata4004">
    <rdf:RDF>
      <cc:Work
         rdf:about="">
        <dc:format>image/svg+xml</dc:format>
        <dc:type
           rdf:resource="http://purl.org/dc/dcmitype/StillImage" />
        <dc:title></dc:title>
      </cc:Work>
    </rdf:RDF>
  </metadata>
  <g
     inkscape:label="Layer 1"
     inkscape:groupmode="layer"
     id="layer1"
     transform="translate(-141.40452,-118.53488)">
    <path
       inkscape:connector-curvature="0"
       style="fill:#24a9e6;stroke-width:0.26458332"
       id="Twitter_4_"
       d="m 150.98246,118.69363 c -0.39688,0.23813 -0.82021,0.42334 -1.29646,0.50271 -0.37042,-0.39687 -0.89958,-0.66146 -1.48167,-0.66146 -1.11125,0 -2.03729,0.92605 -2.03729,2.09021 0,0.15875 0.0265,0.3175 0.0529,0.47625 -1.69333,-0.0794 -3.175,-0.92604 -4.18042,-2.16958 -0.18521,0.3175 -0.26458,0.66146 -0.26458,1.05833 0,0.71438 0.37042,1.34938 0.89958,1.74625 -0.34396,0 -0.635,-0.10583 -0.92604,-0.26458 v 0.0265 c 0,1.00541 0.68792,1.85208 1.64042,2.03729 -0.15875,0.0529 -0.34396,0.0794 -0.52917,0.0794 -0.13229,0 -0.26458,0 -0.37042,-0.0264 0.26459,0.8202 1.00542,1.42875 1.905,1.4552 -0.68791,0.55563 -1.56104,0.89959 -2.51354,0.89959 -0.15875,0 -0.3175,0 -0.47625,-0.0265 0.89959,0.58208 1.95792,0.92604 3.12209,0.92604 3.73062,0 5.79437,-3.175 5.79437,-5.92667 0,-0.0794 0,-0.1852 0,-0.26458 0.39688,-0.29104 0.74083,-0.66146 1.00542,-1.08479 -0.37042,0.15875 -0.76729,0.29104 -1.16417,0.3175 0.34396,-0.29104 0.66146,-0.68792 0.82021,-1.19063 z" />
  </g>
</svg>
