<?xml version="1.0" encoding="UTF-8" standalone="no"?>
<!-- Created with Inkscape (http://www.inkscape.org/) -->

<svg
   xmlns:dc="http://purl.org/dc/elements/1.1/"
   xmlns:cc="http://creativecommons.org/ns#"
   xmlns:rdf="http://www.w3.org/1999/02/22-rdf-syntax-ns#"
   xmlns:svg="http://www.w3.org/2000/svg"
   xmlns="http://www.w3.org/2000/svg"
   xmlns:sodipodi="http://sodipodi.sourceforge.net/DTD/sodipodi-0.dtd"
   xmlns:inkscape="http://www.inkscape.org/namespaces/inkscape"
   width="9.7366667mm"
   height="9.6837463mm"
   viewBox="0 0 9.7366667 9.6837463"
   version="1.1"
   id="svg3965"
   inkscape:version="0.92.2 2405546, 2018-03-11"
   sodipodi:docname="facebook.svg">
  <defs
     id="defs3959" />
  <sodipodi:namedview
     id="base"
     pagecolor="#ffffff"
     bordercolor="#666666"
     borderopacity="1.0"
     inkscape:pageopacity="0.0"
     inkscape:pageshadow="2"
     inkscape:zoom="0.75742187"
     inkscape:cx="224.98071"
     inkscape:cy="-182.17449"
     inkscape:document-units="mm"
     inkscape:current-layer="layer1"
     showgrid="false"
     fit-margin-top="0"
     fit-margin-left="0"
     fit-margin-right="0"
     fit-margin-bottom="0"
     inkscape:window-width="1366"
     inkscape:window-height="718"
     inkscape:window-x="0"
     inkscape:window-y="0"
     inkscape:window-maximized="1" />
  <metadata
     id="metadata3962">
    <rdf:RDF>
      <cc:Work
         rdf:about="">
        <dc:format>image/svg+xml</dc:format>
        <dc:type
           rdf:resource="http://purl.org/dc/dcmitype/StillImage" />
        <dc:title></dc:title>
      </cc:Work>
    </rdf:RDF>
  </metadata>
  <g
     inkscape:label="Layer 1"
     inkscape:groupmode="layer"
     id="layer1"
     transform="translate(-40.19407,-90.949254)">
    <path
       inkscape:connector-curvature="0"
       style="fill:#43619c;stroke-width:0.26458332"
       id="Facebook_3_"
       d="m 49.930737,100.10384 c 0,0.29104 -0.238125,0.52916 -0.529167,0.52916 h -2.487083 v -3.757079 h 1.27 l 0.185208,-1.455208 h -1.455208 v -0.926042 c 0,-0.423333 0.105833,-0.714375 0.714375,-0.714375 h 0.767291 v -1.322917 c -0.132291,-0.02646 -0.582083,-0.05292 -1.137708,-0.05292 -1.11125,0 -1.878542,0.687916 -1.878542,1.931458 v 1.084792 h -1.27 v 1.455208 h 1.27 V 100.633 h -4.656666 c -0.291042,0 -0.529167,-0.23812 -0.529167,-0.52916 v -8.625419 c 0,-0.291042 0.238125,-0.529167 0.529167,-0.529167 h 8.651875 c 0.291041,0 0.529166,0.238125 0.529166,0.529167 v 8.625419 z" />
  </g>
</svg>
